<svg id="Layer_1" data-name="Layer 1" xmlns="http://www.w3.org/2000/svg" xmlns:xlink="http://www.w3.org/1999/xlink" viewBox="0 0 1862.92 758.77"><defs><style>.cls-1{fill:url(#linear-gradient);}</style><linearGradient id="linear-gradient" x1="-30.96" y1="681.53" x2="663.38" y2="357.76" gradientUnits="userSpaceOnUse"><stop offset="0" stop-color="#e20928"/><stop offset="0.32" stop-color="#e73a19"/><stop offset="0.62" stop-color="#ea5f0d"/><stop offset="0.85" stop-color="#ec7606"/><stop offset="1" stop-color="#ed7e03"/></linearGradient></defs><title>Artboard 1</title><path class="cls-1" d="M830.29,118.53a22.25,22.25,0,0,0-16.34-7.13,22.59,22.59,0,0,0-4.91.55,22.37,22.37,0,0,0-14.6,32.68c.14.21.26.44.39.67a11.11,11.11,0,0,1,.86,8.59l0,.09-17.74,55.76,0,.09a11.11,11.11,0,0,1-8.19,7.52l-.39.09L667.78,239l-20.88,4.44a11.07,11.07,0,0,0-7.84,6.2l-.33.79-8.15,19.3L585.73,375.89l0,.09a.13.13,0,0,1,0,.07l-.76,1.81a11.21,11.21,0,0,1-5.3,4.95l-.07,0-1.81.6-55,18.33-9.4,3.13-22.31,7.45h0l-22.31,7.43,0,0-4.35,1.44-1.11.39a.25.25,0,0,1-.12,0,11.15,11.15,0,0,1-7.48-.6l-2.27-1.36-7-4.19-.05,0v0h0l-60.11-36.11,0,0-18.63-11.2h0l-15.64-9.38-.11-.05a9,9,0,0,0-1.74-.88l-.72-.26-.55-.16-.56-.14-.58-.11c-.19,0-.39-.05-.58-.07h-2.31c-.18,0-.37,0-.56.07l-.55.11a10.29,10.29,0,0,0-1.06.26,7.16,7.16,0,0,0-1,.39l-.9.42-.05,0,0,0-1,.56-15.37,9.23,0,0-18.54,11.13,0,0-60.23,36.16-5.92,3.56c-.21.14-.44.28-.67.4a11.52,11.52,0,0,1-2.76,1l-.39.09a11.35,11.35,0,0,1-2.06.19,11.15,11.15,0,0,1-4.35-.88s0,0-.05,0l-1.73-.92a.77.77,0,0,0-.12-.07l-65.5-34.42-.39-.19-1.16-.62-.23-.14a.77.77,0,0,0-.12-.07,11.19,11.19,0,0,1-4.56-6.48,22.33,22.33,0,0,0-44.05,5.14c0,.19,0,.39,0,.56A22.34,22.34,0,0,0,141.5,403a11.28,11.28,0,0,1,3.94-.72,10.74,10.74,0,0,1,4.45.93l.07,0,1.51.81.05,0,65,34.14,1.51.81a11.31,11.31,0,0,1,3.38,3.4c.14.21.26.44.39.67a11,11,0,0,1,1.3,4.24V569.2a11.15,11.15,0,0,0,4.93,9.26l1,.58,2.15,1.29,14.3,8.57L305.78,625l18.49,11.07L339,644.94l0,0,2.52,1.51,0,0a11.22,11.22,0,0,0,4.35.88,11,11,0,0,0,4.31-.86l0,0,2.62-1.58,14.61-8.75L386,625.06h0v0l60.29-36.13h0v0l0,0h0v0l7.91-4.74a11.1,11.1,0,0,1,8.43-1.41l2,.69.14.05,3.79,1.25h0l22.33,7.45L564,616.47a11.13,11.13,0,0,1,6.81,6,4.44,4.44,0,0,0,.26.6,22.32,22.32,0,0,0,42.7-9.1,20.63,20.63,0,0,0-.18-2.76,16.5,16.5,0,0,0-.32-1.87c0-.26,0-.55,0-.83a11,11,0,0,1,2.36-6.85l.25-.32,16.74-20.92,14.75-18.45,3.1-3.87,19.23-24,11.16-14,5.32-6.66,2.85-3.56,1.16-1.46a11.18,11.18,0,0,0,0-12.29L689,494.68l0-.05-2.85-3.56-5.33-6.67-11.15-13.94-22.33-27.92L632.6,424.1,625,414.61l-10.26-12.84-4.54-5.67-1.3-1.62-.88-1.11s0,0,0,0a11.11,11.11,0,0,1-1.88-6.22,10.88,10.88,0,0,1,.7-3.87l.39-.88,47.72-113a11.13,11.13,0,0,1,7.57-6.46l.88-.19,104.74-22.26,18.29-3.89.67-.14a11.12,11.12,0,0,0,8-7.54l5.81-18.22,15.79-49.6a.3.3,0,0,1,0-.09,11.21,11.21,0,0,1,6.29-6.9,22.31,22.31,0,0,0,7.24-35.58Zm-383.93,438a11.18,11.18,0,0,1-4.91,9.26l-1,.58-88.19,52.94,0,0-.05,0-1,.63-.11.05a11.15,11.15,0,0,1-10.49,0l-.05,0-1.06-.63-88.93-53.42a11.17,11.17,0,0,1-5.11-8.65V447.69a11.18,11.18,0,0,1,4.93-9.28l.92-.55,5.48-3.27,82.86-49.67,1-.56a11.17,11.17,0,0,1,11.57.55L440,437.55l.09.05,1.85,1.11.05,0a11.12,11.12,0,0,1,4.37,7.66ZM621.93,446.42l3.08,3.86,14.77,18.47,7.55,9.45,13,16.32,1.27,1.58a11.17,11.17,0,0,1,1.81,6.11,11,11,0,0,1-2.31,6.76,2.33,2.33,0,0,1-.25.33s-.05,0-.05,0l-.14.19-13.38,16.73-7.57,9.47L625,554.19l-3.1,3.87-17.85,22.33-5.63,7a.86.86,0,0,1-.19.25,11,11,0,0,1-7.73,4,.43.43,0,0,1-.21,0,22.27,22.27,0,0,0-9.7,2.8,4.27,4.27,0,0,1-.62.35,11,11,0,0,1-4.28,1.2.43.43,0,0,1-.21,0,3.41,3.41,0,0,1-.6,0,11.43,11.43,0,0,1-3.57-.58l-.23-.09-44.86-14.95-12.85-4.28-22.31-7.45h0l-14.33-4.79-.19-.07-.44-.14a11.14,11.14,0,0,1-7.36-10.48V451.32a11.17,11.17,0,0,1,7.73-10.62.56.56,0,0,1,.16-.05l.23-.07L491,435.84h0l22.31-7.45,12.89-4.3,9.45-3.15L558,413.5l13.75-4.58,8.28-2.76c.25-.09.49-.18.74-.25a11.17,11.17,0,0,1,11.53,3.52c.19.23.39.46.55.69l1.71,2.13,8.1,10.12,1.39,1.73Z"/><path d="M980.37,358.4c2.34,0,3.28,1.4,3.51,3.51L999.1,532.16c.23,2.34-1.17,3.51-3.51,3.51H978.73c-2.34,0-3.28-1.17-3.51-3.51l-10.77-133L913.86,527a4.1,4.1,0,0,1-4.21,2.81H893c-2.34,0-3.75-.94-4.45-2.81L838,399.14l-10.77,133c-.23,2.34-1.17,3.51-3.51,3.51H807.08c-2.34,0-3.75-1.17-3.51-3.51l15-170c.23-2.34,1.17-3.75,3.51-3.75h18.27c5.62,0,7,2.34,9.6,9.13l51.28,133,51.28-133c2.58-6.79,4-9.13,9.6-9.13Z"/><path d="M1053.19,370.11c0,8.9-4.68,13.82-13.82,13.82-8.9,0-13.82-4.92-13.82-13.82s4.92-13.58,13.82-13.58C1048.51,356.52,1053.19,361.21,1053.19,370.11Zm-6.09,37.47q3.51,0,3.51,3.51V532.16q0,3.51-3.51,3.51h-15.46q-3.51,0-3.51-3.51V411.09q0-3.51,3.51-3.51Z"/><path d="M1189.24,461.2v71c0,2.34-1.64,3.51-4,3.51h-15q-3.51,0-3.51-3.51V463.07c0-35.83-7-37-29.51-37h-32.08V532.16q0,3.51-3.51,3.51h-15.46q-3.51,0-3.51-3.51V413.9c0-3,1.17-3.28,3.51-3.75,18.27-3.51,37.47-3.75,48.71-3.75C1176.83,406.4,1189.24,411.56,1189.24,461.2Z"/><path d="M1320.38,358.63q3.51,0,3.51,3.51v167c0,2.58-1.4,3.51-3.75,3.75-20.61,3.28-31.15,4-48.71,4-45.43,0-54.56-12.88-54.56-64.87s9.13-65.57,53.39-65.57a250.24,250.24,0,0,1,31.15,1.64v-45.9q0-3.51,3.51-3.51Zm-48.71,67.44c-29,0-32.32,8.9-32.32,45.66,0,36.06,3,45.43,32.08,45.43a260.74,260.74,0,0,0,30-1.87V426.07Z"/><path d="M1500,446.92c0,63.46-19.9,89.92-72.83,89.92-20.61,0-47.77-.47-64.4-1.64-2.81-.23-3.51-.7-3.51-3.28V362.38c0-2.81.7-3.28,3.51-3.51,16.63-1.17,43.79-1.64,64.4-1.64C1480.09,357.23,1500,383.92,1500,446.92ZM1382.9,378.07V516h44.26c35.83,0,48.94-20.37,48.94-69.08,0-48-14.05-68.85-52.22-68.85Z"/><path d="M1633.7,471.74c0,52.22-9.13,65.1-54.33,65.1s-54.56-12.88-54.56-65.1,9.37-65.33,54.56-65.33S1633.7,419.52,1633.7,471.74Zm-86.41,0c0,36.3,3.51,45.43,32.08,45.43,28.34,0,31.85-9.13,31.85-45.43,0-36.53-3.51-45.66-31.85-45.66C1550.81,426.07,1547.29,435.21,1547.29,471.74Z"/><path d="M1748.21,408.51c2.11.23,3.28,1.64,3.28,4v10.07q0,3.51-3.51,3.51h-35.36c-28.33,0-31.85,9.13-31.85,45.66,0,36.3,3.51,45.43,31.85,45.43H1748q3.51,0,3.51,3.51v10.07c0,2.34-1.17,3.75-3.28,4a280.11,280.11,0,0,1-35.59,2.11c-45.43,0-54.33-12.88-54.33-65.1s8.9-65.33,54.33-65.33A280.11,280.11,0,0,1,1748.21,408.51Z"/><path d="M809.75,581.41a1.19,1.19,0,0,1,1.34,1.34v17.53a96.75,96.75,0,0,1,11.9-.63c16.91,0,20.39,5.19,20.39,25s-3.49,24.78-20.84,24.78a100.69,100.69,0,0,1-18.6-1.52c-.89-.09-1.43-.45-1.43-1.43V582.76a1.19,1.19,0,0,1,1.34-1.34Zm1.34,25.76v34.08a101.13,101.13,0,0,0,11.54.72c11,0,12.25-3.67,12.25-17.35,0-14-1.34-17.44-12.34-17.44Z"/><path d="M893.29,600.11a1.19,1.19,0,0,1,1.34,1.34v43.11c-.09,17.53-3.49,22.63-20.66,22.63a89.92,89.92,0,0,1-13.51-.81,1.32,1.32,0,0,1-1.25-1.43v-3.85a1.19,1.19,0,0,1,1.34-1.34h13.24c10,0,12.25-2.42,12.25-10.46v-.54a70.41,70.41,0,0,1-11.81.72c-16.91,0-20.48-5.1-20.48-24.42V601.45a1.19,1.19,0,0,1,1.34-1.34h5.81a1.19,1.19,0,0,1,1.34,1.34v23.08c0,14,1.43,17.44,12.52,17.44a96.26,96.26,0,0,0,11.27-.63V601.45a1.19,1.19,0,0,1,1.34-1.34Z"/><path d="M966.73,582.22c.89.09,1.25.45,1.25,1.16v4.12c0,.89-.36,1.34-1.16,1.34H946.7c-7.87,0-11.72,2.42-11.72,8v1.52c0,4.47,1.25,6.89,6.71,9.12l19.5,8c8.23,3.4,10.29,8.5,10.29,15.56v2.86c0,13.6-10.91,15.56-23.61,15.56A181.65,181.65,0,0,1,926,648.23c-.8-.18-1.07-.54-1.07-1.43v-4a1.13,1.13,0,0,1,1.25-1.25h24.51c7.87,0,11.63-2.24,11.63-7.87V632c0-4.56-1.25-7.42-6.8-9.66l-21.2-8.59c-7-2.68-8.41-8.41-8.41-15.21v-2.15c0-13.6,10.64-15.47,23.44-15.47C956.8,580.88,959.49,581.33,966.73,582.22Z"/><path d="M1014.14,600.47a1.35,1.35,0,0,1,1.25,1.52v3.85a1.19,1.19,0,0,1-1.34,1.34h-13.51c-10.82,0-12.17,3.49-12.17,17.44S989.72,642,1000.54,642h13.51a1.19,1.19,0,0,1,1.34,1.34v3.85a1.35,1.35,0,0,1-1.25,1.52,107,107,0,0,1-13.6.8c-17.35,0-20.75-4.92-20.75-24.87s3.4-25,20.75-25A106.81,106.81,0,0,1,1014.14,600.47Z"/><path d="M1031.94,581.41a1.19,1.19,0,0,1,1.34,1.34v17.35a112.86,112.86,0,0,1,11.36-.45c16,0,20.75,2,20.75,20.93v27.1a1.19,1.19,0,0,1-1.34,1.34h-5.9a1.19,1.19,0,0,1-1.34-1.34V621.31c0-13.69-2.68-14.22-11.27-14.22h-12.25v40.61a1.19,1.19,0,0,1-1.34,1.34H1026a1.19,1.19,0,0,1-1.34-1.34V582.76a1.19,1.19,0,0,1,1.34-1.34Z"/><path d="M1117.45,624.62c0,19.95-3.49,24.87-20.75,24.87s-20.84-4.92-20.84-24.87,3.58-25,20.84-25S1117.45,604.67,1117.45,624.62Zm-23.7-36.41c0,3.58-1.79,5.46-5.37,5.46s-5.55-1.88-5.55-5.46,2-5.28,5.55-5.28S1093.75,584.72,1093.75,588.21Zm-9.3,36.41c0,13.86,1.34,17.35,12.25,17.35s12.17-3.49,12.17-17.35-1.34-17.44-12.17-17.44S1084.45,610.66,1084.45,624.62Zm26-36.41c0,3.58-1.88,5.46-5.46,5.46s-5.46-1.88-5.46-5.46,1.88-5.28,5.46-5.28S1110.48,584.72,1110.48,588.21Z"/><path d="M1168.89,620.59v27.1c0,.89-.63,1.34-1.52,1.34h-5.72a1.19,1.19,0,0,1-1.34-1.34V621.31c0-13.69-2.68-14.13-11.27-14.13h-12.25v40.52a1.19,1.19,0,0,1-1.34,1.34h-5.9a1.19,1.19,0,0,1-1.34-1.34V602.52c0-1.16.45-1.25,1.34-1.43a101.48,101.48,0,0,1,18.61-1.43C1164.14,599.66,1168.89,601.63,1168.89,620.59Z"/><path d="M1246.71,581.33c1.61,0,1.61.8.8,1.7l-26.57,29.7,28.53,33.9c.81,1.07.89,2.42-1.52,2.42h-7a2.16,2.16,0,0,1-2-1l-27.64-33.27v32.92A1.19,1.19,0,0,1,1210,649h-6.44a1.19,1.19,0,0,1-1.34-1.34v-65a1.19,1.19,0,0,1,1.34-1.34H1210a1.19,1.19,0,0,1,1.34,1.34v28.09l26.21-28.53a2.38,2.38,0,0,1,1.88-.89Z"/><path d="M1263.88,581.33a1.19,1.19,0,0,1,1.34,1.34v65a1.19,1.19,0,0,1-1.34,1.34H1258a1.19,1.19,0,0,1-1.34-1.34v-65a1.19,1.19,0,0,1,1.34-1.34Z"/><path d="M1287.14,585.8c0,3.4-1.79,5.28-5.28,5.28s-5.28-1.88-5.28-5.28,1.88-5.19,5.28-5.19S1287.14,582.4,1287.14,585.8Zm-2.33,14.31a1.19,1.19,0,0,1,1.34,1.34v46.24a1.19,1.19,0,0,1-1.34,1.34h-5.9a1.19,1.19,0,0,1-1.34-1.34V601.45a1.19,1.19,0,0,1,1.34-1.34Z"/><path d="M1339.11,620.59v27.1c0,.89-.63,1.34-1.52,1.34h-5.72a1.19,1.19,0,0,1-1.34-1.34V621.31c0-13.69-2.68-14.13-11.27-14.13H1307v40.52a1.19,1.19,0,0,1-1.34,1.34h-5.9a1.19,1.19,0,0,1-1.34-1.34V602.52c0-1.16.45-1.25,1.34-1.43a101.48,101.48,0,0,1,18.61-1.43C1334.36,599.66,1339.11,601.63,1339.11,620.59Z"/><path d="M1360.66,585.8c0,3.4-1.79,5.28-5.28,5.28s-5.28-1.88-5.28-5.28,1.88-5.19,5.28-5.19S1360.66,582.4,1360.66,585.8Zm-2.33,14.31a1.19,1.19,0,0,1,1.34,1.34v46.24a1.19,1.19,0,0,1-1.34,1.34h-5.9a1.19,1.19,0,0,1-1.34-1.34V601.45a1.19,1.19,0,0,1,1.34-1.34Z"/><path d="M1379.27,581.41a1.25,1.25,0,0,1,1.34,1.43v34.62L1395.28,601a2.38,2.38,0,0,1,1.88-.89h7.42c1.61,0,1.7.81.8,1.7l-15.83,17.53,21,27.28c.8,1.07.89,2.42-1.52,2.42h-6.26a2.49,2.49,0,0,1-2-1l-20.21-26.65V647.6c0,1-.45,1.43-1.34,1.43h-5.9c-.89,0-1.34-.45-1.34-1.43V582.85a1.25,1.25,0,0,1,1.34-1.43Z"/></svg>