<svg width="725" height="726" viewBox="0 0 725 726" fill="none" xmlns="http://www.w3.org/2000/svg">
<path d="M0 0H725V725H0V0Z" fill="#F5F5F5"/>
<path d="M607.913 182.919C606.475 181.366 604.731 180.128 602.79 179.281C600.85 178.435 598.756 177.998 596.639 178C595.499 178.002 594.363 178.13 593.251 178.379C590.915 178.91 588.734 179.978 586.881 181.497C585.028 183.017 583.555 184.947 582.577 187.135C581.6 189.323 581.145 191.708 581.25 194.102C581.354 196.496 582.014 198.833 583.178 200.928C583.274 201.072 583.357 201.231 583.447 201.39C583.936 202.288 584.241 203.275 584.343 204.293C584.445 205.311 584.342 206.339 584.04 207.317V207.379L571.8 245.851V245.913C571.397 247.198 570.663 248.355 569.671 249.265C568.679 250.176 567.464 250.81 566.15 251.102L565.88 251.164L495.787 266.04L481.38 269.103C480.206 269.342 479.105 269.854 478.165 270.597C477.226 271.34 476.474 272.294 475.971 273.381L475.743 273.926L470.12 287.242L439.175 360.489V360.551C439.179 360.567 439.179 360.584 439.175 360.6L438.651 361.848C437.844 363.361 436.558 364.562 434.994 365.264H434.946L433.697 365.678L395.749 378.325L389.263 380.484L373.87 385.625L358.477 390.751L355.475 391.745L354.709 392.014C354.682 392.02 354.654 392.02 354.627 392.014C352.91 392.476 351.086 392.33 349.466 391.6L347.899 390.661L343.07 387.77H343.035L301.561 362.856L288.707 355.128L277.916 348.656L277.84 348.622C277.463 348.376 277.061 348.173 276.64 348.015L276.143 347.835L275.763 347.725L275.377 347.628L274.977 347.552C274.846 347.552 274.708 347.518 274.577 347.504H272.983C272.859 347.504 272.728 347.504 272.597 347.552L272.217 347.628C271.97 347.675 271.726 347.735 271.486 347.808C271.249 347.88 271.019 347.97 270.796 348.077L270.175 348.366H270.14L269.45 348.753L258.845 355.121L246.054 362.801L204.497 387.75L200.412 390.206C200.267 390.303 200.109 390.399 199.95 390.482C199.347 390.792 198.707 391.024 198.046 391.172L197.777 391.234C197.308 391.321 196.832 391.365 196.355 391.365C195.324 391.366 194.304 391.159 193.354 390.758C193.354 390.758 193.354 390.758 193.319 390.758L192.126 390.123C192.1 390.105 192.072 390.088 192.043 390.075L146.85 366.326L146.581 366.195L145.781 365.767L145.622 365.671C145.596 365.652 145.568 365.636 145.539 365.623C143.98 364.566 142.861 362.976 142.393 361.152C141.517 357.483 139.327 354.263 136.235 352.101C133.144 349.94 129.368 348.988 125.621 349.425C121.875 349.862 118.419 351.658 115.909 354.473C113.398 357.288 112.007 360.926 112 364.698C112 364.829 112 364.967 112 365.084C112.06 367.529 112.701 369.924 113.869 372.072C115.037 374.22 116.7 376.059 118.719 377.437C120.739 378.816 123.057 379.694 125.483 379.999C127.909 380.305 130.373 380.029 132.671 379.194C133.541 378.868 134.461 378.699 135.39 378.697C136.447 378.69 137.494 378.909 138.46 379.339H138.509L139.55 379.898H139.585L184.433 403.453L185.474 404.012C186.411 404.619 187.206 405.418 187.807 406.358C187.903 406.503 187.986 406.662 188.076 406.82C188.57 407.725 188.875 408.72 188.973 409.746V493.867C188.972 495.129 189.282 496.372 189.875 497.486C190.468 498.6 191.327 499.551 192.374 500.256L193.064 500.656L194.548 501.546L204.414 507.459L246.019 532.367L258.776 540.005L268.94 546.125L270.678 547.166C271.628 547.567 272.649 547.773 273.68 547.774C274.701 547.778 275.712 547.576 276.654 547.18V547.18L278.461 546.09L288.542 540.053L301.368 532.408L342.966 507.48L348.424 504.209C349.281 503.671 350.236 503.307 351.235 503.14C352.233 502.973 353.255 503.006 354.24 503.236L355.62 503.712L355.717 503.747L358.332 504.609L373.739 509.75L424.182 526.481C425.212 526.802 426.163 527.337 426.973 528.05C427.782 528.764 428.432 529.64 428.881 530.621C428.93 530.763 428.99 530.902 429.06 531.035C430.498 534.255 432.998 536.884 436.142 538.483C439.285 540.081 442.882 540.552 446.332 539.817C449.781 539.082 452.873 537.185 455.092 534.444C457.311 531.703 458.521 528.283 458.522 524.756C458.523 524.119 458.481 523.483 458.398 522.852C458.349 522.418 458.275 521.987 458.177 521.562C458.177 521.382 458.177 521.182 458.177 520.989C458.17 519.275 458.744 517.609 459.805 516.263L459.978 516.042L471.528 501.608L481.705 488.878L483.843 486.208L497.112 469.649L504.812 459.989L508.482 455.394L510.449 452.938L511.249 451.93C512.077 450.671 512.519 449.198 512.519 447.691C512.519 446.184 512.077 444.71 511.249 443.451L510.428 442.45V442.416L508.461 439.959L504.784 435.357L497.091 425.739L481.684 406.475L471.514 393.752L466.27 387.205L459.191 378.345L456.059 374.433L455.162 373.316L454.554 372.55C453.704 371.28 453.252 369.786 453.257 368.258C453.255 367.346 453.418 366.441 453.74 365.588L454.009 364.981L486.935 287.015C487.4 285.917 488.114 284.943 489.02 284.17C489.927 283.396 491.001 282.844 492.158 282.557L492.765 282.426L565.032 267.068L577.651 264.384L578.114 264.287C579.406 263.973 580.594 263.328 581.561 262.416C582.529 261.504 583.243 260.356 583.633 259.085L587.642 246.514L598.537 212.291C598.533 212.271 598.533 212.25 598.537 212.229C598.875 211.17 599.438 210.197 600.187 209.376C600.936 208.554 601.853 207.904 602.876 207.468C605.114 206.47 607.081 204.953 608.615 203.041C610.148 201.13 611.202 198.88 611.691 196.479C612.179 194.078 612.088 191.595 611.424 189.237C610.759 186.878 609.542 184.713 607.872 182.919H607.913ZM343.014 485.125C343.015 486.385 342.706 487.627 342.116 488.741C341.525 489.855 340.671 490.807 339.627 491.514L338.937 491.914L278.089 528.441H278.054L277.364 528.875L277.288 528.91C276.174 529.504 274.932 529.814 273.669 529.814C272.407 529.814 271.164 529.504 270.051 528.91H270.016L269.285 528.475L207.926 491.617C206.913 490.967 206.067 490.088 205.454 489.052C204.842 488.015 204.481 486.85 204.4 485.649V410.029C204.399 408.764 204.709 407.519 205.302 406.403C205.895 405.286 206.754 404.333 207.802 403.626L208.437 403.246L212.218 400.99L269.388 366.72L270.078 366.333C271.316 365.661 272.715 365.34 274.123 365.407C275.53 365.474 276.892 365.926 278.061 366.713L338.626 403.032L338.688 403.067L339.965 403.833H339.999C340.836 404.462 341.535 405.255 342.053 406.164C342.572 407.073 342.899 408.078 343.014 409.118V485.125ZM464.152 409.152L466.277 411.816L476.468 424.559L481.677 431.08L490.647 442.34L491.523 443.43C492.34 444.684 492.774 446.149 492.772 447.646C492.774 449.334 492.213 450.976 491.178 452.31C491.127 452.391 491.069 452.467 491.005 452.538H490.971L490.874 452.669L481.642 464.212L476.419 470.746L466.27 483.51L464.131 486.18L451.815 501.587L447.931 506.417C447.898 506.482 447.854 506.541 447.8 506.59C447.145 507.388 446.335 508.045 445.417 508.519C444.5 508.994 443.496 509.276 442.466 509.349C442.419 509.361 442.369 509.361 442.321 509.349C439.972 509.473 437.682 510.133 435.629 511.281C435.493 511.374 435.35 511.454 435.201 511.523C434.283 511.997 433.278 512.279 432.248 512.351C432.2 512.363 432.15 512.363 432.103 512.351C431.965 512.363 431.827 512.363 431.689 512.351C430.852 512.349 430.02 512.214 429.226 511.951L429.067 511.888L398.115 501.573L389.249 498.62L373.856 493.48L363.969 490.175L363.838 490.127L363.534 490.03C362.047 489.494 360.761 488.512 359.852 487.218C358.943 485.924 358.456 484.381 358.456 482.799V412.533C358.457 410.905 358.974 409.319 359.932 408.003C360.89 406.686 362.24 405.707 363.789 405.206C363.824 405.189 363.861 405.177 363.9 405.171L364.058 405.123L373.815 401.853L389.208 396.712L398.101 393.746L404.622 391.572L420.042 386.439L429.529 383.279L435.242 381.374C435.415 381.312 435.58 381.25 435.753 381.202C437.172 380.803 438.676 380.82 440.086 381.251C441.496 381.681 442.753 382.507 443.708 383.631C443.839 383.789 443.977 383.948 444.088 384.107L445.267 385.576L450.856 392.559L451.815 393.752L464.152 409.152Z" fill="#D1D1D1"/>
</svg>
